ply
format ascii 1.0
comment VCGLIB generated
element vertex 330
property float x
property float y
property float z
property float nx
property float ny
property float nz
property float texture_u
property float texture_v
element face 456
property list uchar int vertex_indices
end_header
11.0884 -16.8295 14.9782 0.3444291 -0.326484 0.8802141 0.870139 0.019996
11.0884 -15.8693 14.9782 0.3700553 0.3101983 0.8756918 0.870139 0.047383
-11.0878 -15.8693 14.9782 -0.3444124 0.3264447 0.8802352 0.129881 0.047383
-11.0878 -16.8295 14.9782 -0.3700219 -0.310229 0.875695 0.129881 0.019996
14.9787 -16.8295 -11.0889 0.8801662 -0.3265864 -0.3444543 1.000000 0.019996
14.9787 -15.8693 -11.0889 0.8756421 0.3102801 -0.3701043 1.000000 0.047383
14.9787 -15.8693 11.088 0.8802133 0.3264685 0.3444458 1.000000 0.047383
14.9787 -16.8295 11.088 0.8756621 -0.31027 0.3700655 1.000000 0.019996
-11.0878 -16.8295 -14.9782 -0.3443331 -0.3266033 -0.8802074 0.129881 0.019996
-11.0878 -15.8693 -14.9782 -0.3699691 0.3103345 -0.87568 0.129881 0.047383
11.0884 -15.8693 -14.9782 0.3443663 0.3265726 -0.8802058 0.870139 0.047383
11.0884 -16.8295 -14.9782 0.3699974 -0.3103727 -0.8756545 0.870139 0.019996
-14.9787 -16.8295 11.088 -0.8801778 -0.3265442 0.3444649 0.000000 0.019996
-14.9787 -15.8693 11.088 -0.8756309 0.3103118 0.3701045 0.000000 0.047383
-14.9787 -15.8693 -11.0889 -0.8801501 0.3265921 -0.34449 0.000000 0.047383
-14.9787 -16.8295 -11.0889 -0.8755885 -0.3103907 -0.3701384 0.000000 0.019996
10.7756 -15.186 14.5558 0.1828244 0.9254062 0.3319619 0.859697 0.066872
-10.7752 -15.186 14.5558 -0.10907 0.8905033 0.4417099 0.140316 0.066872
-10.7752 -17.5127 14.5558 -0.1827054 -0.9271965 0.3269945 0.140316 0.000511
10.7756 -17.5127 14.5558 0.10875 -0.8919842 0.4387913 0.859697 0.000511
14.5562 -15.186 -10.7757 0.3359217 0.9239141 -0.1831379 0.985897 0.066872
14.5562 -15.186 10.7752 0.3852621 0.9180946 0.0931426 0.985897 0.066872
14.5562 -17.5127 10.7752 0.3276179 -0.9269171 0.1830061 0.985897 0.000511
14.5562 -17.5127 -10.7757 0.3771599 -0.9214829 -0.09284236 0.985897 0.000511
-10.7752 -15.186 -14.5555 -0.1826405 0.9246516 -0.3341585 0.140316 0.066872
10.7756 -15.186 -14.5555 0.1090123 0.8899047 -0.4429288 0.859697 0.066872
10.7756 -17.5127 -14.5555 0.182608 -0.9268593 -0.3280035 0.859697 0.000511
-10.7752 -17.5127 -14.5555 -0.1086921 -0.8917533 -0.4392745 0.140316 0.000511
-14.556 -15.186 10.7752 -0.3346195 0.9243775 0.1831833 0.014110 0.066872
-14.556 -15.186 -10.7757 -0.3839633 0.9186328 -0.0931985 0.014110 0.066872
-14.556 -17.5127 -10.7757 -0.3271536 -0.9270763 -0.1830304 0.014110 0.000511
-14.556 -17.5127 10.7752 -0.3767241 -0.921662 0.0928347 0.014110 0.000511
3.1854 -15.1601 -13.9605 0.02441881 0.9840249 -0.1763485 0.606331 0.067610
-3.1587 -15.1601 -13.957 -0.0584528 0.9787533 -0.1965333 0.394560 0.067610
10.9977 -14.4614 -5.3563 0.4759155 0.8595747 -0.1861067 0.867111 0.087538
12.2048 -14.4614 -0.0681 0.5096646 0.8594975 0.03880817 0.907405 0.087538
14.2679 -15.1601 -0.0685 0.1801627 0.9835601 -0.01228603 0.976273 0.067610
12.8589 -15.1601 -6.2508 0.1716599 0.9801873 -0.0988217 0.929240 0.067610
7.6158 -14.4614 -9.5972 0.3479232 0.8596371 -0.3741303 0.754221 0.087538
8.9039 -15.1601 -11.217 0.09347381 0.9861631 -0.1369128 0.797219 0.067610
2.7287 -14.4614 -11.9506 0.1510746 0.8595196 -0.4882649 0.591086 0.087538
-2.6956 -14.4614 -11.9506 -0.07570791 0.859344 -0.5057631 0.410019 0.087538
-7.5826 -14.4614 -9.5972 -0.2875944 0.8593367 -0.4228829 0.246887 0.087538
-8.8647 -15.1601 -11.2042 -0.1130514 0.9860834 -0.1218975 0.204090 0.067610
-10.9646 -14.4614 -5.3563 -0.4423089 0.859489 -0.2562059 0.133994 0.087538
-12.8244 -15.1601 -6.2552 -0.1845224 0.9801506 -0.07250124 0.071912 0.067610
-12.1723 -14.4614 -0.0681 -0.5094596 0.8596198 -0.03879222 0.093680 0.087538
-14.2369 -15.1601 -0.0747 -0.1786108 0.9838431 0.01228709 0.024762 0.067610
-10.9646 -14.4614 5.2202 -0.4758839 0.8595899 0.1861176 0.133994 0.087538
-12.8279 -15.1601 6.1098 -0.171636 0.9801816 0.09891982 0.071795 0.067610
-7.5826 -14.4614 9.4612 -0.348009 0.8596228 0.3740833 0.246887 0.087538
-8.8774 -15.1601 11.072 -0.09351242 0.9861878 0.1367083 0.203666 0.067610
-2.6956 -14.4614 11.8146 -0.1511689 0.8596498 0.4880064 0.410019 0.087538
-3.1672 -15.1601 13.8281 -0.0244862 0.9845361 0.1734621 0.394277 0.067610
2.7287 -14.4614 11.8146 0.075563 0.8595933 0.5053608 0.591086 0.087538
3.1852 -15.1601 13.8281 0.05815834 0.9791807 0.1944809 0.606324 0.067610
7.6158 -14.4614 9.4612 0.2873507 0.8595942 0.422525 0.754221 0.087538
8.8997 -15.1601 11.0804 0.1128261 0.9861578 0.1215034 0.797078 0.067610
10.9977 -14.4614 5.2202 0.4423437 0.8595245 0.2560264 0.867111 0.087538
12.8546 -15.1601 6.1183 0.1846436 0.9801354 0.07239804 0.929096 0.067610
5.0929 5.9701 -0.0681 0.9586746 0.2845051 -1.927046e-06 0.670005 0.670277
4.5902 5.9701 -2.2706 0.8637415 0.2845008 -0.4159446 0.653224 0.670277
3.5253 9.9528 -1.7578 0.8637437 0.2845055 -0.4159369 0.617677 0.783869
3.9109 9.9528 -0.0681 0.9586749 0.284504 -2.145185e-05 0.630549 0.783869
3.1816 5.9701 -4.0369 0.5977213 0.2845039 -0.7495244 0.606204 0.670277
2.4448 9.9528 -3.1128 0.5977229 0.2845032 -0.7495234 0.581609 0.783869
1.1461 5.9701 -5.0171 0.2133127 0.2845058 -0.9346412 0.538258 0.670277
0.8831 9.9528 -3.8648 0.2133114 0.2845009 -0.934643 0.529478 0.783869
-1.1131 5.9701 -5.0171 -0.2133167 0.2845093 -0.9346392 0.462844 0.670277
-0.85 9.9528 -3.8648 -0.2133083 0.2845022 -0.9346433 0.471626 0.783869
-3.1486 5.9701 -4.0369 -0.5977215 0.2845121 -0.7495211 0.394897 0.670277
-2.4116 9.9528 -3.1128 -0.5977244 0.2845063 -0.7495211 0.419499 0.783869
-4.5571 5.9701 -2.2706 -0.8637391 0.2845053 -0.4159464 0.347881 0.670277
-3.4922 9.9528 -1.7578 -0.8637359 0.2845019 -0.4159555 0.383428 0.783869
-5.0598 5.9701 -0.0681 -0.9586746 0.2845048 -4.194771e-06 0.331100 0.670277
-3.8779 9.9528 -0.0681 -0.9586762 0.2844997 -8.903097e-06 0.370553 0.783869
-4.5571 5.9701 2.1345 -0.8637416 0.2845057 0.4159411 0.347881 0.670277
-3.4922 9.9528 1.6217 -0.8637426 0.2844988 0.4159439 0.383428 0.783869
-3.1486 5.9701 3.9008 -0.5977342 0.2845053 0.7495136 0.394897 0.670277
-2.4116 9.9528 2.9768 -0.5977216 0.2845051 0.7495237 0.419499 0.783869
-1.1131 5.9701 4.8811 -0.2133342 0.2845054 0.9346364 0.462844 0.670277
-0.85 9.9528 3.7288 -0.2133192 0.284508 0.934639 0.471626 0.783869
1.1461 5.9701 4.8811 0.2133263 0.2845017 0.9346393 0.538258 0.670277
0.8831 9.9528 3.7288 0.2133133 0.2845063 0.9346409 0.529478 0.783869
3.1816 5.9701 3.9008 0.5977381 0.2844976 0.7495134 0.606204 0.670277
2.4448 9.9528 2.9768 0.5977318 0.2845034 0.7495162 0.581609 0.783869
4.5902 5.9701 2.1345 0.863744 0.2845036 0.4159375 0.653224 0.670277
3.5253 9.9528 1.6217 0.8637434 0.2844982 0.4159425 0.617677 0.783869
0.9174 17.5306 -0.502 0.4253474 0.889596 -0.1664286 0.530623 1.000000
1.0165 17.5306 -0.0681 0.4554044 0.8896096 0.03466251 0.533931 1.000000
1.9351 16.611 -0.0681 0.8586954 0.5123984 0.009489922 0.564595 0.973772
1.745 16.611 -0.9004 0.7777858 0.5123758 -0.3640334 0.558249 0.973772
0.64 17.5306 -0.8498 0.311061 0.8895943 -0.3344595 0.521364 1.000000
1.2127 16.611 -1.568 0.5428545 0.5123895 -0.6654066 0.540481 0.973772
0.239 17.5306 -1.043 0.1351434 0.8895957 -0.4362978 0.507978 1.000000
0.4435 16.611 -1.9384 0.20035 0.5123684 -0.835068 0.514804 0.973772
-0.2059 17.5306 -1.043 -0.06756948 0.889587 -0.4517404 0.493127 1.000000
-0.4104 16.611 -1.9384 -0.1818102 0.5123751 -0.8392955 0.486301 0.973772
-0.6069 17.5306 -0.8498 -0.2568668 0.8895977 -0.3776711 0.479741 1.000000
-1.1797 16.611 -1.568 -0.5279347 0.5123902 -0.6773044 0.460621 0.973772
-0.8844 17.5306 -0.502 -0.3952665 0.8896029 -0.2288475 0.470478 1.000000
-1.712 16.611 -0.9004 -0.7695295 0.5123813 -0.3811692 0.442852 0.973772
-0.9835 17.5306 -0.0681 -0.4554257 0.8895986 -0.03466749 0.467170 1.000000
-1.902 16.611 -0.0681 -0.8587045 0.5123827 -0.009517378 0.436510 0.973772
-0.8844 17.5306 0.3658 -0.4253566 0.8895973 0.1663986 0.470478 1.000000
-1.712 16.611 0.7644 -0.7777919 0.5123885 0.3640023 0.442852 0.973772
-0.6069 17.5306 0.7138 -0.3110205 0.8896073 0.3344624 0.479741 1.000000
-1.1797 16.611 1.4319 -0.5427979 0.5123947 0.6654488 0.460621 0.973772
-0.2059 17.5306 0.9068 -0.1350795 0.889595 0.4363189 0.493127 1.000000
-0.4104 16.611 1.8023 -0.2003198 0.5123835 0.835066 0.486301 0.973772
0.239 17.5306 0.9068 0.06754287 0.8895954 0.4517279 0.507978 1.000000
0.4435 16.611 1.8023 0.181769 0.5123892 0.8392957 0.514804 0.973772
0.64 17.5306 0.7138 0.2568401 0.889604 0.3776743 0.521364 1.000000
1.2127 16.611 1.4319 0.5279579 0.5123966 0.6772816 0.540481 0.973772
0.9174 17.5306 0.3658 0.3953045 0.8895956 0.2288104 0.530623 1.000000
1.745 16.611 0.7644 0.7695315 0.5123901 0.3811532 0.558249 0.973772
0.0166 17.5306 -0.0681 0 1 0 0.500554 1.000000
9.6964 -13.1269 -4.7296 0.734639 0.5286358 -0.4252643 0.823673 0.125600
10.7604 -13.1269 -0.0681 0.8464046 0.5286326 -0.06439662 0.859190 0.125600
6.7152 -13.1269 -8.4677 0.4773862 0.5286348 -0.7018887 0.724158 0.125600
2.4073 -13.1269 -10.5427 0.1255669 0.5286323 -0.8395123 0.580357 0.125600
-2.3742 -13.1269 -10.5427 -0.2511351 0.5286381 -0.8108471 0.420747 0.125600
-6.6822 -13.1269 -8.4677 -0.578074 0.5286369 -0.6215896 0.276943 0.125600
-9.6632 -13.1269 -4.7296 -0.7904947 0.5286685 -0.3092372 0.177435 0.125600
-10.7272 -13.1269 -0.0681 -0.8463722 0.5286841 0.06439953 0.141918 0.125600
-9.6632 -13.1269 4.5936 -0.7346343 0.5286462 0.4252596 0.177435 0.125600
-6.6822 -13.1269 8.3318 -0.4773779 0.5286372 0.7018925 0.276943 0.125600
-2.3742 -13.1269 10.4064 -0.1255599 0.5286375 0.83951 0.420747 0.125600
2.4073 -13.1269 10.4064 0.251119 0.5286404 0.8108506 0.580357 0.125600
6.7152 -13.1269 8.3318 0.5780698 0.5286341 0.6215958 0.724158 0.125600
9.6964 -13.1269 4.5936 0.7905267 0.5286319 0.3092182 0.823673 0.125600
7.0437 -3.2062 -3.4521 0.8637399 0.2845143 -0.4159387 0.735124 0.408554
7.8161 -3.2062 -0.0681 0.9586722 0.284513 -7.690394e-06 0.760907 0.408554
9.497 -8.87 -0.0681 0.9586719 0.2845139 -3.355803e-06 0.817017 0.247014
8.5583 -8.87 -4.1815 0.863739 0.28451 -0.4159437 0.785682 0.247014
4.8796 -3.2062 -6.1661 0.5977194 0.2845147 -0.7495219 0.662885 0.408554
5.9276 -8.87 -7.4802 0.5977176 0.2844979 -0.7495297 0.697868 0.247014
1.7521 -3.2062 -7.6721 0.2133112 0.2845019 -0.9346427 0.558486 0.408554
2.1262 -8.87 -9.3107 0.2133271 0.2845142 -0.9346354 0.570974 0.247014
-1.7191 -3.2062 -7.6721 -0.213316 0.2844993 -0.9346424 0.442615 0.408554
-2.0931 -8.87 -9.3107 -0.2133222 0.2845269 -0.9346327 0.430131 0.247014
-4.8465 -3.2062 -6.1661 -0.5977247 0.2845029 -0.749522 0.338220 0.408554
-5.8944 -8.87 -7.4802 -0.5977288 0.2845076 -0.749517 0.303241 0.247014
-7.0107 -3.2062 -3.4521 -0.8637379 0.2845065 -0.4159482 0.265978 0.408554
-8.5251 -8.87 -4.1815 -0.8637359 0.2844987 -0.4159579 0.215426 0.247014
-7.7831 -3.2062 -0.0681 -0.9586728 0.284511 -6.055723e-06 0.240194 0.408554
-9.464 -8.87 -0.0681 -0.9586769 0.2844969 -4.545611e-06 0.184085 0.247014
-7.0107 -3.2062 3.3161 -0.863737 0.2845094 0.4159482 0.265978 0.408554
-8.5251 -8.87 4.0454 -0.8637378 0.2844999 0.415953 0.215426 0.247014
-4.8465 -3.2062 6.0299 -0.597733 0.2845079 0.7495136 0.338220 0.408554
-5.8944 -8.87 7.3442 -0.5977291 0.2845072 0.7495169 0.303241 0.247014
-1.7191 -3.2062 7.5361 -0.2133336 0.28451 0.9346352 0.442615 0.408554
-2.0931 -8.87 9.1748 -0.2133266 0.2845025 0.934639 0.430131 0.247014
1.7521 -3.2062 7.5361 0.2133317 0.2845095 0.9346358 0.558486 0.408554
2.1262 -8.87 9.1748 0.2133254 0.284504 0.9346389 0.570974 0.247014
4.8796 -3.2062 6.0299 0.5977281 0.2845146 0.7495149 0.662885 0.408554
5.9276 -8.87 7.3442 0.5977243 0.2845066 0.7495211 0.697868 0.247014
7.0437 -3.2062 3.3161 0.8637381 0.2845152 0.415942 0.735124 0.408554
8.5583 -8.87 4.0454 0.8637387 0.2845109 0.4159436 0.785682 0.247014
9.2428 -10.5235 -0.0681 -0.9401673 -0.3407099 0.001479815 0.808531 0.199853
1.6641 15.014 -0.0681 -0.8587242 -0.5123501 -0.009492378 0.555549 0.928223
1.5009 15.014 -0.7828 -0.7777986 -0.5123495 0.3640431 0.550101 0.928223
8.3292 -10.5235 -4.0712 -0.8464263 -0.3407095 0.4092427 0.778035 0.199853
1.0438 15.014 -1.3561 -0.5428411 -0.5123604 0.6654401 0.534843 0.928223
5.769 -10.5235 -7.2814 -0.5850213 -0.3407067 0.7359817 0.692573 0.199853
0.3832 15.014 -1.6742 -0.2003445 -0.5123546 0.8350778 0.512792 0.928223
2.0696 -10.5235 -9.0627 -0.2077519 -0.3406903 0.9169347 0.569085 0.199853
-0.3501 15.014 -1.6742 0.1817961 -0.5123582 0.8393088 0.488313 0.928223
-2.0365 -10.5235 -9.0627 0.2106124 -0.3406847 0.916284 0.432020 0.199853
-1.0107 15.014 -1.3561 0.527943 -0.5123652 0.6773169 0.466262 0.928223
-5.736 -10.5235 -7.2814 0.5873226 -0.3407046 0.7341475 0.308528 0.199853
-1.4678 15.014 -0.7828 0.7695557 -0.5123489 0.3811594 0.451004 0.928223
-8.296 -10.5235 -4.0712 0.8476911 -0.3407119 0.4066143 0.223073 0.199853
-1.631 15.014 -0.0681 0.8587223 -0.5123523 0.009545073 0.445556 0.928223
-9.2098 -10.5235 -0.0681 0.9401646 -0.3407176 -0.001463714 0.192570 0.199853
-1.4678 15.014 0.6468 0.7778053 -0.5123513 -0.3640264 0.451004 0.928223
-8.296 -10.5235 3.9351 0.8464301 -0.3407136 -0.4092313 0.223073 0.199853
-1.0107 15.014 1.2201 0.5428381 -0.5123643 -0.6654394 0.466262 0.928223
-5.736 -10.5235 7.1454 0.5850402 -0.3407185 -0.7359613 0.308528 0.199853
-0.3501 15.014 1.5382 0.2003425 -0.5123575 -0.8350765 0.488313 0.928223
-2.0365 -10.5235 8.9269 0.2077686 -0.3407164 -0.9169213 0.432020 0.199853
0.3832 15.014 1.5382 -0.1818154 -0.5123569 -0.8393055 0.512792 0.928223
2.0696 -10.5235 8.9269 -0.210629 -0.3407179 -0.9162679 0.569085 0.199853
1.0438 15.014 1.2201 -0.527955 -0.5123614 -0.6773103 0.534843 0.928223
5.769 -10.5235 7.1454 -0.5873378 -0.3407178 -0.7341293 0.692573 0.199853
1.5009 15.014 0.6468 -0.7695668 -0.512351 -0.3811345 0.550101 0.928223
8.3292 -10.5235 3.9351 -0.8477012 -0.3407108 -0.4065942 0.778035 0.199853
0.8753 15.8038 -0.0681 -0.4554815 -0.8895715 -0.03463081 0.529218 0.950749
0.7903 15.8038 -0.4406 -0.4253934 -0.8895763 0.1664166 0.526381 0.950749
0.5519 15.8038 -0.7394 -0.3110639 -0.8895755 0.3345066 0.518423 0.950749
0.2077 15.8038 -0.9052 -0.1351404 -0.8895828 0.4363252 0.506933 0.950749
-0.1745 15.8038 -0.9052 0.06756188 -0.88958 0.4517553 0.494175 0.950749
-0.5188 15.8038 -0.7394 0.256865 -0.8895845 0.3777033 0.482682 0.950749
-0.7572 15.8038 -0.4406 0.39531 -0.8895811 0.2288569 0.474724 0.950749
-0.8422 15.8038 -0.0681 0.4554766 -0.8895724 0.03467099 0.471887 0.950749
-0.7572 15.8038 0.3046 0.4253992 -0.8895786 -0.1663897 0.474724 0.950749
-0.5188 15.8038 0.6034 0.3110556 -0.8895773 -0.3345096 0.482682 0.950749
-0.1745 15.8038 0.7692 0.1351231 -0.8895831 -0.4363298 0.494175 0.950749
0.2077 15.8038 0.7692 -0.06757139 -0.8895792 -0.4517556 0.506933 0.950749
0.5519 15.8038 0.6034 -0.2568841 -0.8895796 -0.3777019 0.518423 0.950749
0.7903 15.8038 0.3046 -0.3953144 -0.8895825 -0.2288441 0.526381 0.950749
0.0166 15.8038 -0.0681 0 -1 0 0.500554 0.950749
10.8496 -14.2534 -0.0681 -0.8282753 -0.5602673 0.007794182 0.862168 0.093471
9.7767 -14.2534 -4.7683 -0.7428657 -0.5602692 0.3664001 0.826353 0.093471
6.7709 -14.2534 -8.5375 -0.5103033 -0.5602854 0.6524345 0.726018 0.093471
2.4272 -14.2534 -10.6289 -0.1766818 -0.5602959 0.8092293 0.581022 0.093471
-2.3941 -14.2534 -10.6289 0.1918794 -0.560306 0.8057541 0.420083 0.093471
-6.7378 -14.2534 -8.5375 0.5224908 -0.5603006 0.6427025 0.275087 0.093471
-9.7437 -14.2534 -4.7683 0.7496306 -0.5602707 0.3523504 0.174748 0.093471
-10.8165 -14.2534 -0.0681 0.8282759 -0.5602665 -0.007788911 0.138937 0.093471
-9.7437 -14.2534 4.6322 0.7428712 -0.5602621 -0.3663997 0.174748 0.093471
-6.7378 -14.2534 8.4016 0.5103363 -0.560265 -0.6524263 0.275087 0.093471
-2.3941 -14.2534 10.4934 0.1767084 -0.5602724 -0.8092398 0.420083 0.093471
2.4272 -14.2534 10.4934 -0.1919053 -0.5602751 -0.8057693 0.581022 0.093471
6.7709 -14.2534 8.4016 -0.5225191 -0.5602677 -0.6427084 0.726018 0.093471
9.7767 -14.2534 4.6322 -0.7496368 -0.560263 -0.3523493 0.826353 0.093471
14.0987 -17.5306 -0.0681 -0.3740501 -0.9269496 0.02917013 0.970625 0.000000
12.7041 -17.5306 -6.1781 -0.3953883 -0.8894619 0.2291848 0.924072 0.000000
8.7966 -17.5306 -11.0784 -0.2140869 -0.924546 0.3152485 0.793637 0.000000
3.1501 -17.5306 -13.7975 -0.06761064 -0.8910265 0.4488882 0.605153 0.000000
-3.117 -17.5306 -13.7975 0.113359 -0.926867 0.3578648 0.395952 0.000000
-8.7636 -17.5306 -11.0784 0.2595976 -0.9245409 0.2789861 0.207465 0.000000
-12.6707 -17.5306 -6.1781 0.4256465 -0.8894522 0.1664333 0.077043 0.000000
-14.0658 -17.5306 -0.0681 0.3744781 -0.9267768 -0.02917255 0.030473 0.000000
-12.6707 -17.5306 6.0419 0.3954455 -0.8894287 -0.2292149 0.077043 0.000000
-8.7636 -17.5306 10.9418 0.2141593 -0.9245038 -0.3153229 0.207465 0.000000
-3.117 -17.5306 13.6611 0.06761471 -0.8906676 -0.4495994 0.395952 0.000000
3.1501 -17.5306 13.6611 -0.1133405 -0.9264044 -0.3590667 0.605153 0.000000
8.7966 -17.5306 10.9418 -0.2596391 -0.9245127 -0.2790411 0.793637 0.000000
12.7041 -17.5306 6.0419 -0.4256506 -0.8894499 -0.1664347 0.924072 0.000000
14.9787 -16.8295 11.088 0.8756621 -0.31027 0.3700655 1.000000 0.019996
14.9787 -15.8693 11.088 0.8802133 0.3264685 0.3444458 1.000000 0.047383
-11.0878 -15.8693 -14.9782 -0.3699691 0.3103345 -0.87568 0.129881 0.047383
-11.0878 -16.8295 -14.9782 -0.3443331 -0.3266033 -0.8802074 0.129881 0.019996
14.5562 -15.186 10.7752 0.3852621 0.9180946 0.0931426 0.985897 0.066872
14.5562 -17.5127 10.7752 0.3276179 -0.9269171 0.1830061 0.985897 0.000511
-10.7752 -15.186 -14.5555 -0.1826405 0.9246516 -0.3341585 0.140316 0.066872
-10.7752 -17.5127 -14.5555 -0.1086921 -0.8917533 -0.4392745 0.140316 0.000511
10.7756 -15.186 -14.5555 0.1090123 0.8899047 -0.4429288 0.859697 0.066872
-10.7752 -15.186 -14.5555 -0.1826405 0.9246516 -0.3341585 0.140316 0.066872
-7.5826 -14.4614 -9.5972 -0.2875944 0.8593367 -0.4228829 0.246887 0.087538
-8.8647 -15.1601 -11.2042 -0.1130514 0.9860834 -0.1218975 0.204090 0.067610
-3.1486 5.9701 -4.0369 -0.5977215 0.2845121 -0.7495211 0.394897 0.670277
-2.4116 9.9528 -3.1128 -0.5977244 0.2845063 -0.7495211 0.419499 0.783869
-0.6069 17.5306 -0.8498 -0.2568668 0.8895977 -0.3776711 0.479741 1.000000
-1.1797 16.611 -1.568 -0.5279347 0.5123902 -0.6773044 0.460621 0.973772
-6.6822 -13.1269 -8.4677 -0.578074 0.5286369 -0.6215896 0.276943 0.125600
3.9109 9.9528 -0.0681 0.9586749 0.284504 -2.145185e-05 0.630549 0.783869
3.5253 9.9528 -1.7578 0.8637437 0.2845055 -0.4159369 0.617677 0.783869
2.4448 9.9528 -3.1128 0.5977229 0.2845032 -0.7495234 0.581609 0.783869
0.8831 9.9528 -3.8648 0.2133114 0.2845009 -0.934643 0.529478 0.783869
-0.85 9.9528 -3.8648 -0.2133083 0.2845022 -0.9346433 0.471626 0.783869
-2.4116 9.9528 -3.1128 -0.5977244 0.2845063 -0.7495211 0.419499 0.783869
-2.4116 9.9528 -3.1128 -0.5977244 0.2845063 -0.7495211 0.419499 0.783869
-3.4922 9.9528 -1.7578 -0.8637359 0.2845019 -0.4159555 0.383428 0.783869
-4.8465 -3.2062 -6.1661 -0.5977247 0.2845029 -0.749522 0.338220 0.408554
-5.8944 -8.87 -7.4802 -0.5977288 0.2845076 -0.749517 0.303241 0.247014
-3.8779 9.9528 -0.0681 -0.9586762 0.2844997 -8.903097e-06 0.370553 0.783869
-3.4922 9.9528 1.6217 -0.8637426 0.2844988 0.4159439 0.383428 0.783869
-2.4116 9.9528 2.9768 -0.5977216 0.2845051 0.7495237 0.419499 0.783869
-0.85 9.9528 3.7288 -0.2133192 0.284508 0.934639 0.471626 0.783869
0.8831 9.9528 3.7288 0.2133133 0.2845063 0.9346409 0.529478 0.783869
2.4448 9.9528 2.9768 0.5977318 0.2845034 0.7495162 0.581609 0.783869
3.5253 9.9528 1.6217 0.8637434 0.2844982 0.4159425 0.617677 0.783869
8.5583 -8.87 -4.1815 0.863739 0.28451 -0.4159437 0.785682 0.247014
9.497 -8.87 -0.0681 0.9586719 0.2845139 -3.355803e-06 0.817017 0.247014
7.8161 -3.2062 -0.0681 0.9586722 0.284513 -7.690394e-06 0.760907 0.408554
7.0437 -3.2062 -3.4521 0.8637399 0.2845143 -0.4159387 0.735124 0.408554
4.5902 5.9701 -2.2706 0.8637415 0.2845008 -0.4159446 0.653224 0.670277
5.0929 5.9701 -0.0681 0.9586746 0.2845051 -1.927046e-06 0.670005 0.670277
5.9276 -8.87 -7.4802 0.5977176 0.2844979 -0.7495297 0.697868 0.247014
4.8796 -3.2062 -6.1661 0.5977194 0.2845147 -0.7495219 0.662885 0.408554
3.1816 5.9701 -4.0369 0.5977213 0.2845039 -0.7495244 0.606204 0.670277
2.1262 -8.87 -9.3107 0.2133271 0.2845142 -0.9346354 0.570974 0.247014
1.7521 -3.2062 -7.6721 0.2133112 0.2845019 -0.9346427 0.558486 0.408554
1.1461 5.9701 -5.0171 0.2133127 0.2845058 -0.9346412 0.538258 0.670277
-2.0931 -8.87 -9.3107 -0.2133222 0.2845269 -0.9346327 0.430131 0.247014
-1.7191 -3.2062 -7.6721 -0.213316 0.2844993 -0.9346424 0.442615 0.408554
-1.1131 5.9701 -5.0171 -0.2133167 0.2845093 -0.9346392 0.462844 0.670277
-5.8944 -8.87 -7.4802 -0.5977288 0.2845076 -0.749517 0.303241 0.247014
-4.8465 -3.2062 -6.1661 -0.5977247 0.2845029 -0.749522 0.338220 0.408554
-3.1486 5.9701 -4.0369 -0.5977215 0.2845121 -0.7495211 0.394897 0.670277
-8.5251 -8.87 -4.1815 -0.8637359 0.2844987 -0.4159579 0.215426 0.247014
-5.8944 -8.87 -7.4802 -0.5977288 0.2845076 -0.749517 0.303241 0.247014
-4.8465 -3.2062 -6.1661 -0.5977247 0.2845029 -0.749522 0.338220 0.408554
-7.0107 -3.2062 -3.4521 -0.8637379 0.2845065 -0.4159482 0.265978 0.408554
-4.5571 5.9701 -2.2706 -0.8637391 0.2845053 -0.4159464 0.347881 0.670277
-3.1486 5.9701 -4.0369 -0.5977215 0.2845121 -0.7495211 0.394897 0.670277
-9.464 -8.87 -0.0681 -0.9586769 0.2844969 -4.545611e-06 0.184085 0.247014
-7.7831 -3.2062 -0.0681 -0.9586728 0.284511 -6.055723e-06 0.240194 0.408554
-5.0598 5.9701 -0.0681 -0.9586746 0.2845048 -4.194771e-06 0.331100 0.670277
-8.5251 -8.87 4.0454 -0.8637378 0.2844999 0.415953 0.215426 0.247014
-7.0107 -3.2062 3.3161 -0.863737 0.2845094 0.4159482 0.265978 0.408554
-4.5571 5.9701 2.1345 -0.8637416 0.2845057 0.4159411 0.347881 0.670277
-5.8944 -8.87 7.3442 -0.5977291 0.2845072 0.7495169 0.303241 0.247014
-4.8465 -3.2062 6.0299 -0.597733 0.2845079 0.7495136 0.338220 0.408554
-3.1486 5.9701 3.9008 -0.5977342 0.2845053 0.7495136 0.394897 0.670277
-2.0931 -8.87 9.1748 -0.2133266 0.2845025 0.934639 0.430131 0.247014
-1.7191 -3.2062 7.5361 -0.2133336 0.28451 0.9346352 0.442615 0.408554
-1.1131 5.9701 4.8811 -0.2133342 0.2845054 0.9346364 0.462844 0.670277
2.1262 -8.87 9.1748 0.2133254 0.284504 0.9346389 0.570974 0.247014
1.7521 -3.2062 7.5361 0.2133317 0.2845095 0.9346358 0.558486 0.408554
1.1461 5.9701 4.8811 0.2133263 0.2845017 0.9346393 0.538258 0.670277
5.9276 -8.87 7.3442 0.5977243 0.2845066 0.7495211 0.697868 0.247014
4.8796 -3.2062 6.0299 0.5977281 0.2845146 0.7495149 0.662885 0.408554
3.1816 5.9701 3.9008 0.5977381 0.2844976 0.7495134 0.606204 0.670277
8.5583 -8.87 4.0454 0.8637387 0.2845109 0.4159436 0.785682 0.247014
7.0437 -3.2062 3.3161 0.8637381 0.2845152 0.415942 0.735124 0.408554
4.5902 5.9701 2.1345 0.863744 0.2845036 0.4159375 0.653224 0.670277
-10.7752 -15.186 14.5558 -0.10907 0.8905033 0.4417099 0.140316 0.066872
-14.556 -15.186 10.7752 -0.3346195 0.9243775 0.1831833 0.014110 0.066872
10.7756 -15.186 14.5558 0.1828244 0.9254062 0.3319619 0.859697 0.066872
14.5562 -15.186 10.7752 0.3852621 0.9180946 0.0931426 0.985897 0.066872
14.5562 -15.186 -10.7757 0.3359217 0.9239141 -0.1831379 0.985897 0.066872
-10.7752 -15.186 -14.5555 -0.1826405 0.9246516 -0.3341585 0.140316 0.066872
-14.556 -15.186 -10.7757 -0.3839633 0.9186328 -0.0931985 0.014110 0.066872
-5.736 -10.5235 -7.2814 0.5873226 -0.3407046 0.7341475 0.308528 0.199853
-1.0107 15.014 -1.3561 0.527943 -0.5123652 0.6773169 0.466262 0.928223
-0.5188 15.8038 -0.7394 0.256865 -0.8895845 0.3777033 0.482682 0.950749
-6.7378 -14.2534 -8.5375 0.5224908 -0.5603006 0.6427025 0.275087 0.093471
-8.7636 -17.5306 -11.0784 0.2595976 -0.9245409 0.2789861 0.207465 0.000000
-14.556 -17.5127 -10.7757 -0.3271536 -0.9270763 -0.1830304 0.014110 0.000511
-10.7752 -17.5127 -14.5555 -0.1086921 -0.8917533 -0.4392745 0.140316 0.000511
10.7756 -17.5127 -14.5555 0.182608 -0.9268593 -0.3280035 0.859697 0.000511
14.5562 -17.5127 -10.7757 0.3771599 -0.9214829 -0.09284236 0.985897 0.000511
14.5562 -17.5127 10.7752 0.3276179 -0.9269171 0.1830061 0.985897 0.000511
10.7756 -17.5127 14.5558 0.10875 -0.8919842 0.4387913 0.859697 0.000511
-10.7752 -17.5127 14.5558 -0.1827054 -0.9271965 0.3269945 0.140316 0.000511
-14.556 -17.5127 10.7752 -0.3767241 -0.921662 0.0928347 0.014110 0.000511
-10.7752 -17.5127 -14.5555 -0.1086921 -0.8917533 -0.4392745 0.140316 0.000511
3 0 1 2 
3 0 2 3 
3 4 5 6 
3 4 6 7 
3 8 9 10 
3 8 10 11 
3 12 13 14 
3 12 14 15 
3 230 231 1 
3 230 1 0 
3 13 12 3 
3 13 3 2 
3 11 10 5 
3 11 5 4 
3 15 14 232 
3 15 232 233 
3 1 16 17 
3 1 17 2 
3 3 18 19 
3 3 19 0 
3 5 20 21 
3 5 21 6 
3 7 22 23 
3 7 23 4 
3 9 24 25 
3 9 25 10 
3 11 26 27 
3 11 27 8 
3 13 28 29 
3 13 29 14 
3 15 30 31 
3 15 31 12 
3 231 234 16 
3 231 16 1 
3 0 19 235 
3 0 235 230 
3 12 31 18 
3 12 18 3 
3 2 17 28 
3 2 28 13 
3 10 25 20 
3 10 20 5 
3 4 23 26 
3 4 26 11 
3 14 29 236 
3 14 236 232 
3 233 237 30 
3 233 30 15 
3 32 238 239 
3 32 239 33 
3 34 35 36 
3 34 36 37 
3 38 34 37 
3 38 37 39 
3 40 38 39 
3 40 39 32 
3 41 40 32 
3 41 32 33 
3 42 41 33 
3 42 33 43 
3 44 240 241 
3 44 241 45 
3 46 44 45 
3 46 45 47 
3 48 46 47 
3 48 47 49 
3 50 48 49 
3 50 49 51 
3 52 50 51 
3 52 51 53 
3 54 52 53 
3 54 53 55 
3 56 54 55 
3 56 55 57 
3 58 56 57 
3 58 57 59 
3 35 58 59 
3 35 59 36 
3 60 61 62 
3 60 62 63 
3 61 64 65 
3 61 65 62 
3 64 66 67 
3 64 67 65 
3 66 68 69 
3 66 69 67 
3 68 70 71 
3 68 71 69 
3 242 72 73 
3 242 73 243 
3 72 74 75 
3 72 75 73 
3 74 76 77 
3 74 77 75 
3 76 78 79 
3 76 79 77 
3 78 80 81 
3 78 81 79 
3 80 82 83 
3 80 83 81 
3 82 84 85 
3 82 85 83 
3 84 86 87 
3 84 87 85 
3 86 60 63 
3 86 63 87 
3 88 89 90 
3 88 90 91 
3 92 88 91 
3 92 91 93 
3 94 92 93 
3 94 93 95 
3 96 94 95 
3 96 95 97 
3 98 96 97 
3 98 97 99 
3 100 244 245 
3 100 245 101 
3 102 100 101 
3 102 101 103 
3 104 102 103 
3 104 103 105 
3 106 104 105 
3 106 105 107 
3 108 106 107 
3 108 107 109 
3 110 108 109 
3 110 109 111 
3 112 110 111 
3 112 111 113 
3 114 112 113 
3 114 113 115 
3 89 114 115 
3 89 115 90 
3 89 88 116 
3 88 92 116 
3 92 94 116 
3 94 96 116 
3 96 98 116 
3 244 100 116 
3 100 102 116 
3 102 104 116 
3 104 106 116 
3 106 108 116 
3 108 110 116 
3 110 112 116 
3 112 114 116 
3 114 89 116 
3 34 117 118 
3 34 118 35 
3 38 119 117 
3 38 117 34 
3 40 120 119 
3 40 119 38 
3 41 121 120 
3 41 120 40 
3 42 122 121 
3 42 121 41 
3 44 123 246 
3 44 246 240 
3 46 124 123 
3 46 123 44 
3 48 125 124 
3 48 124 46 
3 50 126 125 
3 50 125 48 
3 52 127 126 
3 52 126 50 
3 54 128 127 
3 54 127 52 
3 56 129 128 
3 56 128 54 
3 58 130 129 
3 58 129 56 
3 35 118 130 
3 35 130 58 
3 247 248 91 
3 247 91 90 
3 131 132 133 
3 131 133 134 
3 248 249 93 
3 248 93 91 
3 135 131 134 
3 135 134 136 
3 249 250 95 
3 249 95 93 
3 137 135 136 
3 137 136 138 
3 250 251 97 
3 250 97 95 
3 139 137 138 
3 139 138 140 
3 251 252 99 
3 251 99 97 
3 141 139 140 
3 141 140 142 
3 253 254 101 
3 253 101 245 
3 143 255 256 
3 143 256 144 
3 254 257 103 
3 254 103 101 
3 145 143 144 
3 145 144 146 
3 257 258 105 
3 257 105 103 
3 147 145 146 
3 147 146 148 
3 258 259 107 
3 258 107 105 
3 149 147 148 
3 149 148 150 
3 259 260 109 
3 259 109 107 
3 151 149 150 
3 151 150 152 
3 260 261 111 
3 260 111 109 
3 153 151 152 
3 153 152 154 
3 261 262 113 
3 261 113 111 
3 155 153 154 
3 155 154 156 
3 262 263 115 
3 262 115 113 
3 157 155 156 
3 157 156 158 
3 263 247 90 
3 263 90 115 
3 132 157 158 
3 132 158 133 
3 264 265 118 
3 264 118 117 
3 266 267 268 
3 266 268 269 
3 270 264 117 
3 270 117 119 
3 267 271 272 
3 267 272 268 
3 273 270 119 
3 273 119 120 
3 271 274 275 
3 271 275 272 
3 276 273 120 
3 276 120 121 
3 274 277 278 
3 274 278 275 
3 279 276 121 
3 279 121 122 
3 277 280 281 
3 277 281 278 
3 282 283 246 
3 282 246 123 
3 284 285 286 
3 284 286 287 
3 288 282 123 
3 288 123 124 
3 285 289 290 
3 285 290 286 
3 291 288 124 
3 291 124 125 
3 289 292 293 
3 289 293 290 
3 294 291 125 
3 294 125 126 
3 292 295 296 
3 292 296 293 
3 297 294 126 
3 297 126 127 
3 295 298 299 
3 295 299 296 
3 300 297 127 
3 300 127 128 
3 298 301 302 
3 298 302 299 
3 303 300 128 
3 303 128 129 
3 301 304 305 
3 301 305 302 
3 306 303 129 
3 306 129 130 
3 304 307 308 
3 304 308 305 
3 265 306 130 
3 265 130 118 
3 307 266 269 
3 307 269 308 
3 309 53 51 
3 51 49 310 
3 51 310 309 
3 310 49 47 
3 53 309 311 
3 53 311 55 
3 311 57 55 
3 57 311 312 
3 57 312 59 
3 312 36 59 
3 312 313 36 
3 313 37 36 
3 313 39 37 
3 39 313 238 
3 32 39 238 
3 239 43 33 
3 241 314 315 
3 241 315 45 
3 315 47 45 
3 315 310 47 
3 159 160 161 
3 159 161 162 
3 162 161 163 
3 162 163 164 
3 164 163 165 
3 164 165 166 
3 166 165 167 
3 166 167 168 
3 168 167 169 
3 168 169 170 
3 316 317 171 
3 316 171 172 
3 172 171 173 
3 172 173 174 
3 174 173 175 
3 174 175 176 
3 176 175 177 
3 176 177 178 
3 178 177 179 
3 178 179 180 
3 180 179 181 
3 180 181 182 
3 182 181 183 
3 182 183 184 
3 184 183 185 
3 184 185 186 
3 186 185 160 
3 186 160 159 
3 160 187 188 
3 160 188 161 
3 161 188 189 
3 161 189 163 
3 163 189 190 
3 163 190 165 
3 165 190 191 
3 165 191 167 
3 167 191 192 
3 167 192 169 
3 317 318 193 
3 317 193 171 
3 171 193 194 
3 171 194 173 
3 173 194 195 
3 173 195 175 
3 175 195 196 
3 175 196 177 
3 177 196 197 
3 177 197 179 
3 179 197 198 
3 179 198 181 
3 181 198 199 
3 181 199 183 
3 183 199 200 
3 183 200 185 
3 185 200 187 
3 185 187 160 
3 187 201 188 
3 188 201 189 
3 189 201 190 
3 190 201 191 
3 191 201 192 
3 318 201 193 
3 193 201 194 
3 194 201 195 
3 195 201 196 
3 196 201 197 
3 197 201 198 
3 198 201 199 
3 199 201 200 
3 200 201 187 
3 202 159 162 
3 202 162 203 
3 203 162 164 
3 203 164 204 
3 204 164 166 
3 204 166 205 
3 205 166 168 
3 205 168 206 
3 206 168 170 
3 206 170 207 
3 319 316 172 
3 319 172 208 
3 208 172 174 
3 208 174 209 
3 209 174 176 
3 209 176 210 
3 210 176 178 
3 210 178 211 
3 211 178 180 
3 211 180 212 
3 212 180 182 
3 212 182 213 
3 213 182 184 
3 213 184 214 
3 214 184 186 
3 214 186 215 
3 215 186 159 
3 215 159 202 
3 216 202 203 
3 216 203 217 
3 217 203 204 
3 217 204 218 
3 218 204 205 
3 218 205 219 
3 219 205 206 
3 219 206 220 
3 220 206 207 
3 220 207 221 
3 320 319 208 
3 320 208 222 
3 222 208 209 
3 222 209 223 
3 223 209 210 
3 223 210 224 
3 224 210 211 
3 224 211 225 
3 225 211 212 
3 225 212 226 
3 226 212 213 
3 226 213 227 
3 227 213 214 
3 227 214 228 
3 228 214 215 
3 228 215 229 
3 229 215 202 
3 229 202 216 
3 321 320 222 
3 322 220 221 
3 323 219 220 
3 323 218 219 
3 324 217 218 
3 324 216 217 
3 325 229 216 
3 325 228 229 
3 326 227 228 
3 327 226 227 
3 327 225 226 
3 328 224 225 
3 328 223 224 
3 321 222 223 
3 326 327 227 
3 324 325 216 
3 322 323 220 
3 328 321 223 
3 327 328 225 
3 325 326 228 
3 323 324 218 
3 321 329 320 
