ply
format ascii 1.0
comment VCGLIB generated
comment TextureFile crate_1.jpg
element vertex 20
property float x
property float y
property float z
property float nx
property float ny
property float nz
property float texture_u
property float texture_v
element face 12
property list uchar int vertex_indices
end_header
-1 -1 -1 -1 0 0 0.000000 0.000000
-1 -1 -1 0 -1 0 0.000000 0.000000
-1 -1 -1 0 0 -1 0.000000 0.000000
-1 1 -1 -1 0 0 0.000000 1.000000
-1 1 -1 0 1 0 0.000000 1.000000
-1 1 -1 0 0 -1 0.000000 1.000000
1 1 -1 0 0.7071068 -0.7071068 1.000000 1.000000
1 1 -1 1 0 0 1.000000 1.000000
1 -1 -1 1 0 0 1.000000 0.000000
1 -1 -1 0 -0.7071068 -0.7071068 1.000000 0.000000
-1 -1 1 -1 0 0 0.000000 0.000000
-1 -1 1 0 -1 0 0.000000 0.000000
-1 -1 1 0 0 1 0.000000 0.000000
-1 1 1 -1 0 0 0.000000 1.000000
-1 1 1 0 1 0 0.000000 1.000000
-1 1 1 0 0 1 0.000000 1.000000
1 1 1 0 0.7071068 0.7071068 1.000000 1.000000
1 1 1 1 0 0 1.000000 1.000000
1 -1 1 1 0 0 1.000000 0.000000
1 -1 1 0 -0.7071068 0.7071068 1.000000 0.000000
3 3 0 10 
3 3 10 13 
3 14 16 6 
3 14 6 4 
3 17 18 8 
3 17 8 7 
3 1 9 19 
3 1 19 11 
3 2 5 6 
3 2 6 9 
3 19 16 15 
3 19 15 12 
