ply
format ascii 1.0
comment VCGLIB generated
element vertex 368
property float x
property float y
property float z
property float nx
property float ny
property float nz
property float texture_u
property float texture_v
element face 592
property list uchar int vertex_indices
end_header
0.499717 -0.105618 -0.141693 0.04712372 0.9209546 0.38681 1.000000 0.235955
0.499717 -0.098806 -0.148393 0.0610218 0.2504148 0.9662136 1.000000 0.252985
0.499717 -0.098806 0.148393 0.04619497 0.3791403 -0.9241854 1.000000 0.252985
0.499717 -0.105618 0.141693 0.06222117 0.9648398 -0.2553681 1.000000 0.235955
0.499717 0.098806 -0.148393 0.04619497 -0.3791403 0.9241854 1.000000 0.747015
0.499717 0.105618 0.141693 0.04712372 -0.9209546 -0.38681 1.000000 0.764045
0.499717 0.098806 0.148393 0.0610218 -0.2504148 -0.9662136 1.000000 0.747015
0.46065 -0.102212 -0.145043 1 0 0 0.960911 0.244470
0.460651 -0.102212 0.145043 0.08043036 0.5297229 -0.8443487 0.960912 0.244470
0.460651 0.102212 -0.145043 1 0 0 0.960912 0.755530
0.46065 0.102212 0.145043 1 0 0 0.960911 0.755530
0.489331 -0.2 -0.241505 0.4471092 -0.8191223 -0.3593498 0.989608 0.000000
0.489331 -0.191362 -0.25 0.5091181 -0.2495412 -0.8237281 0.989608 0.021595
0.499717 -0.180356 -0.2397 0.9674773 -0.08506325 -0.2382265 1.000000 0.049110
0.499717 -0.188994 -0.231205 0.9666339 -0.2248252 -0.122771 1.000000 0.027515
0.499717 -0.188994 0.231205 0.9349602 -0.3323545 0.1240559 1.000000 0.027515
0.499717 -0.180356 0.2397 0.9417796 -0.07165853 0.3285063 1.000000 0.049110
0.489331 -0.191362 0.25 0.5507429 -0.3508117 0.7573727 0.989608 0.021595
0.489331 -0.2 0.241505 0.3047493 -0.8818485 0.3598212 0.989608 0.000000
0.489332 0.191362 -0.25 0.4616746 0.4317665 -0.774877 0.989609 0.978405
0.489332 0.2 -0.241505 0.4589894 0.8245381 -0.330856 0.989609 1.000000
0.499717 0.188994 -0.231205 0.9507598 0.2903617 -0.1083786 1.000000 0.972485
0.499717 0.180356 -0.2397 0.9148538 0.08605287 -0.3945091 1.000000 0.950890
0.499717 0.180356 0.2397 0.9480412 0.1069849 0.29962 1.000000 0.950890
0.499717 0.188994 0.231205 0.9539847 0.2631733 0.1437118 1.000000 0.972485
0.489331 0.2 0.241505 0.4430297 0.8697494 0.2173952 0.989608 1.000000
0.489331 0.191362 0.25 0.4496691 0.3236194 0.8325073 0.989608 0.978405
0.264103 0.189358 -0.259775 -0.1322682 -0.3223093 -0.9373483 0.764253 0.973395
0.264103 0.187778 -0.258499 -0.2723777 -0.8596093 -0.4322988 0.764253 0.969445
0.264103 0.192885 -0.258499 0.2208572 0.8836573 -0.4127614 0.764253 0.982212
0.264103 0.191365 -0.259775 0.06133924 0.3379797 -0.9391524 0.764253 0.978412
0.264103 0.187778 -0.255946 -0.2397382 -0.8755978 0.4193497 0.764253 0.969445
0.264103 0.189358 -0.254669 -0.06581838 -0.3286845 0.9421436 0.764253 0.973395
0.264103 0.191365 -0.254669 0.123285 0.3326374 0.9349616 0.764253 0.978412
0.264103 0.192885 -0.255946 0.2502804 0.8707466 0.4232731 0.764253 0.982212
0.264103 0.128907 -0.255946 0.4546222 -0.800514 0.3905074 0.764253 0.822268
0.264103 0.130426 -0.254669 0.1851124 -0.3259331 0.9270928 0.764253 0.826065
0.264103 0.132434 -0.254669 -0.198659 0.3148435 0.9281208 0.764253 0.831085
0.264103 0.134013 -0.255946 -0.4907275 0.7776288 0.3930393 0.764253 0.835032
0.264103 0.130426 -0.259775 0.1850208 -0.3257719 -0.9271677 0.764253 0.826065
0.264103 0.128907 -0.258499 0.4545836 -0.8004461 -0.3906915 0.764253 0.822268
0.264103 0.134013 -0.258499 -0.4906836 0.7775591 -0.3932321 0.764253 0.835032
0.264103 0.132434 -0.259775 -0.1985552 0.3146789 -0.9281989 0.764253 0.831085
0.267009 0.135847 -0.258499 -0.7347125 0.5560248 -0.388631 0.767160 0.839618
0.267825 0.134782 -0.259775 -0.2501531 0.2713878 -0.9293935 0.767977 0.836955
0.267825 0.134782 -0.254669 -0.3013257 0.226461 0.9262388 0.767977 0.836955
0.267009 0.135847 -0.255946 -0.6199849 0.6772426 0.3961833 0.767160 0.839618
0.269833 0.132161 -0.255946 0.7091731 -0.5874676 0.3898145 0.769986 0.830402
0.269022 0.13322 -0.254669 0.2377993 -0.2832792 0.929088 0.769174 0.833050
0.269833 0.132161 -0.258499 0.5885799 -0.7049021 -0.3958368 0.769986 0.830402
0.269022 0.13322 -0.259775 0.2897568 -0.238773 -0.9268379 0.769174 0.833050
0.268638 0.13902 -0.258499 -0.885255 0.1717835 -0.4322198 0.768790 0.847550
0.26972 0.138473 -0.259775 -0.3207779 0.103492 -0.9414834 0.769873 0.846183
0.271494 0.137575 -0.259775 0.4710887 -0.07817997 -0.8786145 0.771648 0.843938
0.272591 0.13702 -0.258499 0.9079955 -0.2681918 -0.3218967 0.772745 0.842550
0.26972 0.138473 -0.254669 -0.4774819 0.07284656 0.8756166 0.769873 0.846183
0.268638 0.13902 -0.255946 -0.9154052 0.247338 0.3175804 0.768790 0.847550
0.272591 0.13702 -0.255946 0.8796999 -0.1861796 0.4375675 0.772745 0.842550
0.271494 0.137575 -0.254669 0.3142136 -0.11112 0.9428267 0.771648 0.843938
0.269022 0.188571 -0.254669 0.2898444 0.2388175 0.9267991 0.769174 0.971428
0.269833 0.189631 -0.255946 0.6605663 0.6371709 0.3970713 0.769986 0.974078
0.267009 0.185944 -0.258499 -0.6881838 -0.6068484 -0.3976657 0.767160 0.964860
0.267825 0.187009 -0.259775 -0.3011819 -0.2263274 -0.9263182 0.767977 0.967523
0.269022 0.188571 -0.259775 0.237625 0.2830446 -0.929204 0.769174 0.971428
0.269833 0.189631 -0.258499 0.6418382 0.6593722 -0.3914999 0.769986 0.974078
0.267825 0.187009 -0.254669 -0.2502671 -0.2714713 0.9293383 0.767977 0.967523
0.267009 0.185944 -0.255946 -0.6713685 -0.6302844 0.3898793 0.767160 0.964860
0.26972 0.183318 -0.259775 -0.3986316 -0.06081483 -0.9150926 0.769873 0.958295
0.268638 0.182771 -0.258499 -0.9057171 -0.2050602 -0.3709809 0.768790 0.956928
0.272591 0.184771 -0.258499 0.8969552 0.2466643 -0.3669171 0.772745 0.961927
0.271494 0.184216 -0.259775 0.3675901 0.1299771 -0.9208602 0.771648 0.960540
0.268638 0.182771 -0.255946 -0.9040892 -0.2273196 0.3618683 0.768790 0.956928
0.26972 0.183318 -0.254669 -0.3755668 -0.12117 0.9188403 0.769873 0.958295
0.271494 0.184216 -0.254669 0.393476 0.06529193 0.9170134 0.771648 0.960540
0.272591 0.184771 -0.255946 0.8997643 0.2221 0.3756272 0.772745 0.961927
0.245058 0.187778 -0.258499 0.2915464 -0.8865129 -0.3592989 0.745197 0.969445
0.245058 0.189358 -0.259775 0.0789012 -0.3939235 -0.9157505 0.745197 0.973395
0.245058 0.191365 -0.259775 -0.1053479 0.2842361 -0.952949 0.745197 0.978412
0.245058 0.192885 -0.258499 -0.1875744 0.8427003 -0.5046504 0.745197 0.982212
0.245058 0.189358 -0.254669 0.1131426 -0.2756669 0.9545714 0.745197 0.973395
0.245058 0.187778 -0.255946 0.2038576 -0.8328345 0.5146151 0.745197 0.969445
0.245058 0.192885 -0.255946 -0.2683239 0.8961947 0.3533232 0.745197 0.982212
0.245058 0.191365 -0.254669 -0.07355615 0.4053099 0.9112154 0.745197 0.978412
0.245058 0.130426 -0.254669 -0.2446008 -0.4306769 0.8687277 0.745197 0.826065
0.245058 0.128907 -0.255946 -0.4771375 -0.8401727 0.2577782 0.745197 0.822268
0.245058 0.134013 -0.255946 0.4562643 0.7229862 0.5187619 0.745197 0.835032
0.245058 0.132434 -0.254669 0.1312978 0.2080581 0.969264 0.745197 0.831085
0.245058 0.128907 -0.258499 -0.4230831 -0.7449669 -0.5157762 0.745197 0.822268
0.245058 0.130426 -0.259775 -0.1222456 -0.2152419 -0.9688792 0.745197 0.826065
0.245058 0.132434 -0.259775 0.2624761 0.4159269 -0.8706958 0.745197 0.831085
0.245058 0.134013 -0.258499 0.5154209 0.8167041 -0.2594913 0.745197 0.835032
0.241337 0.134782 -0.259775 0.301301 0.2264175 -0.9262575 0.741474 0.836955
0.242152 0.135847 -0.258499 0.6882193 0.6068991 -0.3975269 0.742289 0.839618
0.242152 0.135847 -0.255946 0.6714266 0.6303182 0.3897248 0.742289 0.839618
0.241337 0.134782 -0.254669 0.2503518 0.2715687 0.9292871 0.741474 0.836955
0.240139 0.13322 -0.254669 -0.2898914 -0.2388852 0.9267669 0.740275 0.833050
0.239328 0.132161 -0.255946 -0.6605629 -0.6372495 0.3969506 0.739464 0.830402
0.240139 0.13322 -0.259775 -0.2376884 -0.2831451 -0.9291572 0.740275 0.833050
0.239328 0.132161 -0.258499 -0.6418428 -0.6594194 -0.3914127 0.739464 0.830402
0.239442 0.138473 -0.259775 0.3407473 0.051983 -0.9387168 0.739578 0.846183
0.240523 0.13902 -0.258499 0.8626066 0.2448452 -0.4426745 0.740659 0.847550
0.23657 0.13702 -0.258499 -0.9255329 -0.2112916 -0.3142369 0.736704 0.842550
0.237667 0.137575 -0.259775 -0.4403825 -0.1557362 -0.8842 0.737802 0.843938
0.240523 0.13902 -0.255946 0.9306864 0.1946714 0.3097192 0.740659 0.847550
0.239442 0.138473 -0.254669 0.4499496 0.1451669 0.8811765 0.739578 0.846183
0.237667 0.137575 -0.254669 -0.336143 -0.05578657 0.9401574 0.737802 0.843938
0.23657 0.13702 -0.255946 -0.8537357 -0.2650663 0.448191 0.736704 0.842550
0.239328 0.189631 -0.255946 -0.7091804 0.5874028 0.3898989 0.739464 0.974078
0.240139 0.188571 -0.254669 -0.2377369 0.2831797 0.9291342 0.740275 0.971428
0.241337 0.187009 -0.259775 0.2502314 -0.2713929 -0.9293708 0.741474 0.967523
0.242152 0.185944 -0.258499 0.7347738 -0.5560253 -0.3885143 0.742289 0.964860
0.239328 0.189631 -0.258499 -0.5885712 0.7048427 -0.3959554 0.739464 0.974078
0.240139 0.188571 -0.259775 -0.2897117 0.2387061 -0.9268693 0.740275 0.971428
0.242152 0.185944 -0.255946 0.6200392 -0.6772161 0.3961437 0.742289 0.964860
0.241337 0.187009 -0.254669 0.3014334 -0.2264958 0.9261952 0.741474 0.967523
0.240523 0.182771 -0.258499 0.9215453 -0.1434814 -0.3607871 0.740659 0.956928
0.239442 0.183318 -0.259775 0.3755718 -0.1211682 -0.9188385 0.739578 0.958295
0.237667 0.184216 -0.259775 -0.3933074 0.06526192 -0.9170879 0.737802 0.960540
0.23657 0.184771 -0.258499 -0.8730477 0.3120968 -0.3746776 0.736704 0.961927
0.239442 0.183318 -0.254669 0.3989883 -0.06086969 0.9149334 0.739578 0.958295
0.240523 0.182771 -0.255946 0.8833786 -0.2880716 0.3696716 0.740659 0.956928
0.23657 0.184771 -0.255946 -0.9177532 0.1554665 0.3654575 0.736704 0.961927
0.237667 0.184216 -0.254669 -0.3677535 0.1300368 0.9207866 0.737802 0.960540
0.499717 0.105618 -0.141693 1 0 0 1.000000 0.764045
-0.499717 -0.180356 0.2397 -0.9148468 -0.08605929 0.3945241 0.000000 0.049110
-0.499717 -0.188994 0.231205 -0.9539847 -0.2631733 0.1437118 0.000000 0.027515
-0.499717 -0.188994 -0.231205 -0.9507549 -0.2903749 -0.1083865 0.000000 0.027515
-0.499717 -0.180356 -0.2397 -0.9480412 -0.1069849 -0.29962 0.000000 0.049110
-0.46065 0.102212 0.145043 -1 0 0 0.039089 0.755530
-0.489331 -0.2 -0.241505 -0.3656259 -0.8926631 -0.2635724 0.010392 0.000000
-0.489331 -0.191362 -0.25 -0.5102773 -0.3672344 -0.7776606 0.010392 0.021595
-0.499717 0.098806 0.148393 -0.0610218 -0.2504148 -0.9662136 0.000000 0.747015
-0.499717 0.105618 0.141693 -0.04712372 -0.9209546 -0.38681 0.000000 0.764045
-0.499717 0.105618 -0.141693 -0.06222116 -0.9648398 0.2553681 0.000000 0.764045
-0.499717 0.098806 -0.148393 -0.04619497 -0.3791403 0.9241854 0.000000 0.747015
-0.489331 -0.191362 0.25 -0.3983714 -0.3725863 0.8381407 0.010392 0.021595
-0.489331 -0.2 0.241505 -0.5297002 -0.8073756 0.2599279 0.010392 0.000000
-0.499717 -0.105618 0.141693 -0.06222117 0.9648398 -0.2553681 0.000000 0.235955
-0.499717 -0.098806 0.148393 -0.04619497 0.3791403 -0.9241854 0.000000 0.252985
-0.499717 -0.098806 -0.148393 -0.0610218 0.2504148 0.9662136 0.000000 0.252985
-0.499717 -0.105618 -0.141693 -0.04712372 0.9209546 0.38681 0.000000 0.235955
-0.245182 0.094568 -0.25 0 -0.7939156 0.608028 0.254679 0.736420
-0.259694 0.080523 -0.26729 0 -0.7237967 0.6900133 0.240159 0.701307
-0.247065 0.160387 -0.25 0.5054495 0.8628562 0 0.252795 0.900967
-0.245182 0.158504 -0.25 0.9675382 0.2527248 0 0.254679 0.896260
-0.263979 0.158504 -0.25 -0.8628562 0.5054495 0 0.235872 0.896260
-0.262096 0.160387 -0.25 -0.1485543 0.9889042 0 0.237756 0.900967
-0.245182 0.172381 -0.25 0.9238795 -0.3826835 0 0.254679 0.930952
-0.247065 0.170498 -0.25 0.3826835 -0.9238795 0 0.252795 0.926245
-0.247065 0.187126 -0.25 0.2527248 0.9675382 0 0.252795 0.967815
-0.245182 0.185243 -0.25 0.9238795 0.3826835 0 0.254679 0.963107
-0.262096 0.170498 -0.25 -0.2527248 -0.9675382 0 0.237756 0.926245
-0.263979 0.172381 -0.25 -0.9238795 -0.3826835 0 0.235872 0.930952
-0.263979 0.185243 -0.25 -0.9238795 0.3826835 0 0.235872 0.963107
-0.262096 0.187126 -0.25 -0.3826835 0.9238795 0 0.237756 0.967815
-0.250247 0.160387 -0.265407 0.1093702 0.9015062 -0.4187182 0.249611 0.900967
-0.249467 0.158504 -0.26729 0.3992945 0.3508543 -0.8470331 0.250392 0.896260
-0.247065 0.160387 -0.262225 0.3734141 0.9015067 -0.2187408 0.252795 0.900967
-0.245182 0.158504 -0.263005 0.829238 0.4857578 -0.2764124 0.254679 0.896260
-0.262096 0.160387 -0.262225 -0.5179816 0.844624 -0.1352978 0.237756 0.900967
-0.263979 0.158504 -0.263005 -0.8470337 0.3508544 -0.3992933 0.235872 0.896260
-0.258914 0.160387 -0.265407 -0.2187407 0.9015069 -0.3734137 0.240939 0.900967
-0.259694 0.158504 -0.26729 -0.276413 0.4857581 -0.8292376 0.240159 0.896260
-0.247065 0.170498 -0.262225 0.418718 -0.9015062 -0.1093705 0.252795 0.926245
-0.245182 0.172381 -0.263005 0.7885799 -0.4058988 -0.4619393 0.254679 0.930952
-0.250247 0.170498 -0.265407 0.2187404 -0.9015066 -0.3734147 0.249611 0.926245
-0.249467 0.172381 -0.26729 0.2309693 -0.4058979 -0.8842512 0.250392 0.930952
-0.250247 0.187126 -0.265407 0.1093702 0.9015062 -0.4187182 0.249611 0.967815
-0.249467 0.185243 -0.26729 0.4619388 0.4058989 -0.7885802 0.250392 0.963107
-0.247065 0.187126 -0.262225 0.4619376 0.8446249 -0.2705967 0.252795 0.967815
-0.245182 0.185243 -0.263005 0.8842511 0.405898 -0.2309695 0.254679 0.963107
-0.258914 0.170498 -0.265407 -0.1093703 -0.9015064 -0.4187176 0.240939 0.926245
-0.259694 0.172381 -0.26729 -0.4619403 -0.4058996 -0.7885789 0.240159 0.930952
-0.262096 0.170498 -0.262225 -0.4619378 -0.8446252 -0.2705953 0.237756 0.926245
-0.263979 0.172381 -0.263005 -0.8842513 -0.4058981 -0.2309686 0.235872 0.930952
-0.262096 0.187126 -0.262225 -0.4187181 0.9015062 -0.10937 0.237756 0.967815
-0.263979 0.185243 -0.263005 -0.7885809 0.405899 -0.4619374 0.235872 0.963107
-0.258914 0.187126 -0.265407 -0.2187407 0.9015069 -0.3734137 0.240939 0.967815
-0.259694 0.185243 -0.26729 -0.2309701 0.4058983 -0.8842508 0.240159 0.963107
-0.264103 0.189358 -0.259775 0.1314633 -0.4323903 -0.8920516 0.235747 0.973395
-0.264103 0.187778 -0.258499 0.2696448 -0.9207802 -0.2818788 0.235747 0.969445
-0.264103 0.192885 -0.258499 -0.2181193 0.806693 -0.5492454 0.235747 0.982212
-0.264103 0.191365 -0.259775 -0.06085772 0.2212404 -0.9733186 0.235747 0.978412
-0.264103 0.187778 -0.255946 0.236592 -0.7949812 0.5585956 0.235747 0.969445
-0.264103 0.189358 -0.254669 0.06532507 -0.2148649 0.9744566 0.235747 0.973395
-0.264103 0.191365 -0.254669 -0.1224743 0.4452552 0.8869881 0.235747 0.978412
-0.264103 0.192885 -0.255946 -0.2477925 0.9285197 0.2764962 0.235747 0.982212
-0.264103 0.128907 -0.255946 -0.4546222 -0.800514 0.3905074 0.235747 0.822268
-0.264103 0.130426 -0.254669 -0.1851124 -0.3259331 0.9270928 0.235747 0.826065
-0.264103 0.132434 -0.254669 0.198659 0.3148435 0.9281208 0.235747 0.831085
-0.264103 0.134013 -0.255946 0.4907275 0.7776288 0.3930393 0.235747 0.835032
-0.264103 0.130426 -0.259775 -0.1850208 -0.3257719 -0.9271677 0.235747 0.826065
-0.264103 0.128907 -0.258499 -0.4545836 -0.8004461 -0.3906915 0.235747 0.822268
-0.264103 0.134013 -0.258499 0.4906836 0.7775591 -0.3932321 0.235747 0.835032
-0.264103 0.132434 -0.259775 0.1985552 0.3146789 -0.9281989 0.235747 0.831085
-0.267009 0.135847 -0.258499 0.7347125 0.5560248 -0.388631 0.232840 0.839618
-0.267825 0.134782 -0.259775 0.2501531 0.2713878 -0.9293935 0.232023 0.836955
-0.267825 0.134782 -0.254669 0.3013257 0.226461 0.9262388 0.232023 0.836955
-0.267009 0.135847 -0.255946 0.6199849 0.6772426 0.3961833 0.232840 0.839618
-0.269833 0.132161 -0.255946 -0.7091731 -0.5874676 0.3898145 0.230014 0.830402
-0.269022 0.13322 -0.254669 -0.2377993 -0.2832792 0.929088 0.230826 0.833050
-0.269833 0.132161 -0.258499 -0.5885799 -0.7049021 -0.3958368 0.230014 0.830402
-0.269022 0.13322 -0.259775 -0.2897568 -0.238773 -0.9268379 0.230826 0.833050
-0.268638 0.13902 -0.258499 0.885255 0.1717835 -0.4322198 0.231210 0.847550
-0.26972 0.138473 -0.259775 0.3207779 0.103492 -0.9414834 0.230127 0.846183
-0.271494 0.137575 -0.259775 -0.4710887 -0.07817997 -0.8786145 0.228352 0.843938
-0.272591 0.13702 -0.258499 -0.9079955 -0.2681918 -0.3218967 0.227255 0.842550
-0.26972 0.138473 -0.254669 0.4774819 0.07284656 0.8756166 0.230127 0.846183
-0.268638 0.13902 -0.255946 0.9154052 0.247338 0.3175804 0.231210 0.847550
-0.272591 0.13702 -0.255946 -0.8796999 -0.1861796 0.4375675 0.227255 0.842550
-0.271494 0.137575 -0.254669 -0.3142136 -0.11112 0.9428267 0.228352 0.843938
-0.269022 0.188571 -0.254669 -0.2898444 0.2388175 0.9267991 0.230826 0.971428
-0.269833 0.189631 -0.255946 -0.6605663 0.6371709 0.3970713 0.230014 0.974078
-0.267009 0.185944 -0.258499 0.6881838 -0.6068484 -0.3976657 0.232840 0.964860
-0.267825 0.187009 -0.259775 0.3011819 -0.2263274 -0.9263182 0.232023 0.967523
-0.269022 0.188571 -0.259775 -0.237625 0.2830446 -0.929204 0.230826 0.971428
-0.269833 0.189631 -0.258499 -0.6418382 0.6593722 -0.3914999 0.230014 0.974078
-0.267825 0.187009 -0.254669 0.2502671 -0.2714713 0.9293383 0.232023 0.967523
-0.267009 0.185944 -0.255946 0.6713685 -0.6302844 0.3898793 0.232840 0.964860
-0.26972 0.183318 -0.259775 0.3986316 -0.06081483 -0.9150926 0.230127 0.958295
-0.268638 0.182771 -0.258499 0.9057171 -0.2050602 -0.3709809 0.231210 0.956928
-0.272591 0.184771 -0.258499 -0.8969552 0.2466643 -0.3669171 0.227255 0.961927
-0.271494 0.184216 -0.259775 -0.3675901 0.1299771 -0.9208602 0.228352 0.960540
-0.268638 0.182771 -0.255946 0.9040892 -0.2273196 0.3618683 0.231210 0.956928
-0.26972 0.183318 -0.254669 0.3755668 -0.12117 0.9188403 0.230127 0.958295
-0.271494 0.184216 -0.254669 -0.393476 0.06529193 0.9170134 0.228352 0.960540
-0.272591 0.184771 -0.255946 -0.8997643 0.2221 0.3756272 0.227255 0.961927
-0.245058 0.187778 -0.258499 -0.2910742 -0.8251289 -0.4841882 0.254803 0.969445
-0.245058 0.189358 -0.259775 -0.07884496 -0.2592784 -0.962579 0.254803 0.973395
-0.245058 0.191365 -0.259775 0.1054189 0.3832401 -0.9176132 0.254803 0.978412
-0.245058 0.192885 -0.258499 0.1878104 0.9238945 -0.333386 0.254803 0.982212
-0.245058 0.189358 -0.254669 -0.1132259 -0.3723554 0.9211576 0.254803 0.973395
-0.245058 0.187778 -0.255946 -0.2041817 -0.9181834 0.3394838 0.254803 0.969445
-0.245058 0.192885 -0.255946 0.2679807 0.8379341 0.4754501 0.254803 0.982212
-0.245058 0.191365 -0.254669 0.07350792 0.2672361 0.9608233 0.254803 0.978412
-0.245058 0.130426 -0.254669 0.2446008 -0.4306769 0.8687277 0.254803 0.826065
-0.245058 0.128907 -0.255946 0.4771375 -0.8401727 0.2577782 0.254803 0.822268
-0.245058 0.134013 -0.255946 -0.4562643 0.7229862 0.5187619 0.254803 0.835032
-0.245058 0.132434 -0.254669 -0.1312978 0.2080581 0.969264 0.254803 0.831085
-0.245058 0.128907 -0.258499 0.4230831 -0.7449669 -0.5157762 0.254803 0.822268
-0.245058 0.130426 -0.259775 0.1222456 -0.2152419 -0.9688792 0.254803 0.826065
-0.245058 0.132434 -0.259775 -0.2624761 0.4159269 -0.8706958 0.254803 0.831085
-0.245058 0.134013 -0.258499 -0.5154209 0.8167041 -0.2594913 0.254803 0.835032
-0.241337 0.134782 -0.259775 -0.301301 0.2264175 -0.9262575 0.258526 0.836955
-0.242152 0.135847 -0.258499 -0.6882193 0.6068991 -0.3975269 0.257711 0.839618
-0.242152 0.135847 -0.255946 -0.6714266 0.6303182 0.3897248 0.257711 0.839618
-0.241337 0.134782 -0.254669 -0.2503518 0.2715687 0.9292871 0.258526 0.836955
-0.240139 0.13322 -0.254669 0.2898914 -0.2388852 0.9267669 0.259725 0.833050
-0.239328 0.132161 -0.255946 0.6605629 -0.6372495 0.3969506 0.260536 0.830402
-0.240139 0.13322 -0.259775 0.2376884 -0.2831451 -0.9291572 0.259725 0.833050
-0.239328 0.132161 -0.258499 0.6418428 -0.6594194 -0.3914127 0.260536 0.830402
-0.239442 0.138473 -0.259775 -0.3407473 0.051983 -0.9387168 0.260422 0.846183
-0.240523 0.13902 -0.258499 -0.8626066 0.2448452 -0.4426745 0.259341 0.847550
-0.23657 0.13702 -0.258499 0.9255329 -0.2112916 -0.3142369 0.263296 0.842550
-0.237667 0.137575 -0.259775 0.4403825 -0.1557362 -0.8842 0.262198 0.843938
-0.240523 0.13902 -0.255946 -0.9306864 0.1946714 0.3097192 0.259341 0.847550
-0.239442 0.138473 -0.254669 -0.4499496 0.1451669 0.8811765 0.260422 0.846183
-0.237667 0.137575 -0.254669 0.336143 -0.05578657 0.9401574 0.262198 0.843938
-0.23657 0.13702 -0.255946 0.8537357 -0.2650663 0.448191 0.263296 0.842550
-0.239328 0.189631 -0.255946 0.7091804 0.5874028 0.3898989 0.260536 0.974078
-0.240139 0.188571 -0.254669 0.2377369 0.2831797 0.9291342 0.259725 0.971428
-0.241337 0.187009 -0.259775 -0.2502314 -0.2713929 -0.9293708 0.258526 0.967523
-0.242152 0.185944 -0.258499 -0.7347738 -0.5560253 -0.3885143 0.257711 0.964860
-0.239328 0.189631 -0.258499 0.5885712 0.7048427 -0.3959554 0.260536 0.974078
-0.240139 0.188571 -0.259775 0.2897117 0.2387061 -0.9268693 0.259725 0.971428
-0.242152 0.185944 -0.255946 -0.6200392 -0.6772161 0.3961437 0.257711 0.964860
-0.241337 0.187009 -0.254669 -0.3014334 -0.2264958 0.9261952 0.258526 0.967523
-0.240523 0.182771 -0.258499 -0.9215453 -0.1434814 -0.3607871 0.259341 0.956928
-0.239442 0.183318 -0.259775 -0.3755718 -0.1211682 -0.9188385 0.260422 0.958295
-0.237667 0.184216 -0.259775 0.3933074 0.06526192 -0.9170879 0.262198 0.960540
-0.23657 0.184771 -0.258499 0.8730477 0.3120968 -0.3746776 0.263296 0.961927
-0.239442 0.183318 -0.254669 -0.3989883 -0.06086969 0.9149334 0.260422 0.958295
-0.240523 0.182771 -0.255946 -0.8833786 -0.2880716 0.3696716 0.259341 0.956928
-0.23657 0.184771 -0.255946 0.9177532 0.1554665 0.3654575 0.263296 0.961927
-0.237667 0.184216 -0.254669 0.3677535 0.1300368 0.9207866 0.262198 0.960540
-0.460651 -0.102212 0.145043 -1 0 0 0.039088 0.244470
-0.46065 -0.102212 -0.145043 -0.08096553 0.8415792 0.5340309 0.039089 0.244470
-0.460651 0.102212 -0.145043 -1 0 0 0.039088 0.755530
-0.249467 0.080523 -0.26729 0 -0.7237967 0.6900133 0.250392 0.701307
-0.245182 0.084608 -0.263005 0 -0.7481377 0.6635435 0.254679 0.711520
-0.263979 0.084608 -0.263005 0 -0.771541 0.6361797 0.235872 0.711520
-0.263979 0.094568 -0.25 -1 0 0 0.235872 0.736420
-0.489332 0.191362 -0.25 -0.463864 0.2954508 -0.835188 0.010391 0.978405
-0.489332 0.2 -0.241505 -0.3047631 0.8818445 -0.359819 0.010391 1.000000
-0.499717 0.188994 -0.231205 -0.9507598 0.2903617 -0.1083786 0.000000 0.972485
-0.499717 0.180356 -0.2397 -0.9417843 0.07165318 -0.3284938 0.000000 0.950890
-0.499717 0.180356 0.2397 -0.9674773 0.08506325 0.2382265 0.000000 0.950890
-0.499717 0.188994 0.231205 -0.9539847 0.2631733 0.1437118 0.000000 0.972485
-0.489331 0.2 0.241505 -0.4471165 0.8191177 0.3593509 0.010392 1.000000
-0.489331 0.191362 0.25 -0.5866181 0.2875301 0.7571036 0.010392 0.978405
0.263979 0.094568 -0.25 0 -0.7939156 0.608028 0.764128 0.736420
0.249467 0.080523 -0.26729 0 -0.7237967 0.6900133 0.749608 0.701307
0.262096 0.160387 -0.25 0.5054495 0.8628562 0 0.762244 0.900967
0.263979 0.158504 -0.25 0.9675382 0.2527248 0 0.764128 0.896260
0.245182 0.158504 -0.25 -0.8628562 0.5054495 0 0.745321 0.896260
0.247065 0.160387 -0.25 -0.1485543 0.9889042 0 0.747205 0.900967
0.263979 0.172381 -0.25 0.9238795 -0.3826835 0 0.764128 0.930952
0.262096 0.170498 -0.25 0.3826835 -0.9238795 0 0.762244 0.926245
0.262096 0.187126 -0.25 0.2527248 0.9675382 0 0.762244 0.967815
0.263979 0.185243 -0.25 0.9238795 0.3826835 0 0.764128 0.963107
0.247065 0.170498 -0.25 -0.2527248 -0.9675382 0 0.747205 0.926245
0.245182 0.172381 -0.25 -0.9238795 -0.3826835 0 0.745321 0.930952
0.245182 0.185243 -0.25 -0.9238795 0.3826835 0 0.745321 0.963107
0.247065 0.187126 -0.25 -0.3826835 0.9238795 0 0.747205 0.967815
0.258914 0.160387 -0.265407 0.1093703 0.9015064 -0.4187176 0.759061 0.900967
0.259694 0.158504 -0.26729 0.3992958 0.3508549 -0.8470323 0.759841 0.896260
0.262096 0.160387 -0.262225 0.3734142 0.9015069 -0.2187397 0.762244 0.900967
0.263979 0.158504 -0.263005 0.8292384 0.4857578 -0.2764112 0.764128 0.896260
0.247065 0.160387 -0.262225 -0.5179814 0.8446239 -0.1352984 0.747205 0.900967
0.245182 0.158504 -0.263005 -0.847033 0.3508542 -0.399295 0.745321 0.896260
0.250247 0.160387 -0.265407 -0.2187404 0.9015066 -0.3734147 0.750389 0.900967
0.249467 0.158504 -0.26729 -0.2764122 0.4857576 -0.8292382 0.749608 0.896260
0.262096 0.170498 -0.262225 0.4187181 -0.9015062 -0.10937 0.762244 0.926245
0.263979 0.172381 -0.263005 0.7885809 -0.405899 -0.4619374 0.764128 0.930952
0.258914 0.170498 -0.265407 0.2187407 -0.9015069 -0.3734137 0.759061 0.926245
0.259694 0.172381 -0.26729 0.2309701 -0.4058983 -0.8842508 0.759841 0.930952
0.258914 0.187126 -0.265407 0.1093703 0.9015064 -0.4187176 0.759061 0.967815
0.259694 0.185243 -0.26729 0.4619403 0.4058996 -0.7885789 0.759841 0.963107
0.262096 0.187126 -0.262225 0.4619378 0.8446252 -0.2705953 0.762244 0.967815
0.263979 0.185243 -0.263005 0.8842513 0.4058981 -0.2309686 0.764128 0.963107
0.250247 0.170498 -0.265407 -0.1093702 -0.9015062 -0.4187182 0.750389 0.926245
0.249467 0.172381 -0.26729 -0.4619388 -0.4058989 -0.7885802 0.749608 0.930952
0.247065 0.170498 -0.262225 -0.4619376 -0.8446249 -0.2705967 0.747205 0.926245
0.245182 0.172381 -0.263005 -0.8842511 -0.405898 -0.2309695 0.745321 0.930952
0.247065 0.187126 -0.262225 -0.418718 0.9015062 -0.1093705 0.747205 0.967815
0.245182 0.185243 -0.263005 -0.7885799 0.4058988 -0.4619393 0.745321 0.963107
0.250247 0.187126 -0.265407 -0.2187404 0.9015066 -0.3734147 0.750389 0.967815
0.249467 0.185243 -0.26729 -0.2309693 0.4058979 -0.8842512 0.749608 0.963107
0.259694 0.080523 -0.26729 0 -0.7237967 0.6900133 0.759841 0.701307
0.263979 0.084608 -0.263005 0 -0.7481377 0.6635435 0.764128 0.711520
0.245182 0.084608 -0.263005 0 -0.771541 0.6361797 0.745321 0.711520
0.245182 0.094568 -0.25 -1 0 0 0.745321 0.736420
0.499717 -0.098806 0.148393 1 0 0 1.000000 0.252985
0.499717 -0.105618 0.141693 1 0 0 1.000000 0.235955
0.499717 0.098806 0.148393 1 0 0 1.000000 0.747015
0.499717 -0.105618 -0.141693 1 0 0 1.000000 0.235955
0.499717 0.105618 0.141693 1 0 0 1.000000 0.764045
0.499717 -0.098806 -0.148393 1 0 0 1.000000 0.252985
0.499717 0.098806 -0.148393 1 0 0 1.000000 0.747015
0.460651 -0.102212 0.145043 1 0 0 0.960912 0.244470
0.46065 0.102212 0.145043 0.08096553 -0.8415792 -0.5340309 0.960911 0.755530
-0.249467 0.080523 -0.26729 0.3826835 0 -0.9238795 0.250392 0.701307
-0.245182 0.084608 -0.263005 0.9238795 0 -0.3826835 0.254679 0.711520
-0.245182 0.094568 -0.25 1 0 0 0.254679 0.736420
-0.499717 -0.098806 0.148393 -1 0 0 0.000000 0.252985
-0.499717 -0.105618 0.141693 -1 0 0 0.000000 0.235955
-0.499717 0.098806 0.148393 -1 0 0 0.000000 0.747015
-0.499717 -0.105618 -0.141693 -1 0 0 0.000000 0.235955
-0.499717 0.105618 0.141693 -1 0 0 0.000000 0.764045
-0.499717 0.105618 -0.141693 -1 0 0 0.000000 0.764045
-0.499717 -0.098806 -0.148393 -1 0 0 0.000000 0.252985
-0.499717 0.098806 -0.148393 -1 0 0 0.000000 0.747015
0.499717 0.105618 -0.141693 0.06222116 -0.9648398 0.2553681 1.000000 0.764045
0.460651 0.102212 -0.145043 0.08043036 -0.5297229 0.8443487 0.960912 0.755530
0.46065 -0.102212 -0.145043 0.08096553 0.8415792 0.5340309 0.960911 0.244470
-0.46065 -0.102212 -0.145043 -1 0 0 0.039089 0.244470
-0.460651 -0.102212 0.145043 -0.08043036 0.5297229 -0.8443487 0.039088 0.244470
-0.460651 0.102212 -0.145043 -0.08043036 -0.5297229 0.8443487 0.039088 0.755530
-0.46065 0.102212 0.145043 -0.08096553 -0.8415792 -0.5340309 0.039089 0.755530
-0.263979 0.084608 -0.263005 -0.9238802 0 -0.3826818 0.235872 0.711520
-0.259694 0.080523 -0.26729 -0.3826851 0 -0.9238789 0.240159 0.701307
-0.263979 0.094568 -0.25 0 -0.7939156 0.608028 0.235872 0.736420
0.259694 0.080523 -0.26729 0.3826851 0 -0.9238789 0.759841 0.701307
0.263979 0.084608 -0.263005 0.9238802 0 -0.3826818 0.764128 0.711520
0.263979 0.094568 -0.25 1 0 0 0.764128 0.736420
0.245182 0.084608 -0.263005 -0.9238795 0 -0.3826835 0.745321 0.711520
0.249467 0.080523 -0.26729 -0.3826835 0 -0.9238795 0.749608 0.701307
0.245182 0.094568 -0.25 0 -0.7939156 0.608028 0.745321 0.736420
3 352 5 340 
3 352 340 353 
3 135 17 26 
3 135 26 289 
3 1 4 353 
3 1 353 354 
3 129 11 18 
3 129 18 136 
3 7 9 10 
3 7 10 339 
3 6 2 8 
3 6 8 340 
3 334 16 332 
3 15 11 14 
3 338 13 22 
3 336 21 24 
3 3 0 354 
3 3 354 8 
3 12 22 13 
3 16 26 17 
3 25 21 20 
3 283 288 25 
3 283 25 20 
3 3 8 2 
3 340 5 6 
3 1 354 0 
3 353 4 352 
3 12 14 11 
3 17 15 16 
3 21 19 20 
3 24 26 23 
3 135 136 18 
3 135 18 17 
3 19 282 283 
3 19 283 20 
3 21 338 22 
3 14 337 335 
3 332 15 333 
3 288 289 26 
3 288 26 25 
3 282 19 12 
3 282 12 130 
3 24 334 336 
3 333 14 335 
3 35 40 49 
3 35 49 47 
3 28 61 66 
3 28 66 31 
3 41 38 46 
3 41 46 43 
3 34 60 64 
3 34 64 29 
3 32 65 59 
3 32 59 33 
3 37 36 48 
3 37 48 45 
3 39 42 44 
3 39 44 50 
3 43 46 56 
3 43 56 51 
3 47 49 54 
3 47 54 57 
3 72 55 58 
3 72 58 73 
3 45 48 58 
3 45 58 55 
3 68 51 56 
3 68 56 71 
3 50 44 52 
3 50 52 53 
3 70 53 52 
3 70 52 67 
3 65 72 73 
3 65 73 59 
3 60 74 69 
3 60 69 64 
3 74 57 54 
3 74 54 69 
3 61 68 71 
3 61 71 66 
3 63 70 67 
3 63 67 62 
3 75 80 113 
3 75 113 110 
3 86 94 95 
3 86 95 83 
3 81 78 111 
3 81 111 107 
3 84 96 98 
3 84 98 87 
3 77 76 109 
3 77 109 112 
3 79 82 108 
3 79 108 114 
3 90 92 93 
3 90 93 85 
3 88 97 91 
3 88 91 89 
3 97 102 99 
3 97 99 91 
3 96 106 101 
3 96 101 98 
3 119 122 105 
3 119 105 104 
3 92 100 103 
3 92 103 93 
3 117 116 99 
3 117 99 102 
3 94 104 105 
3 94 105 95 
3 121 118 101 
3 121 101 106 
3 107 111 118 
3 107 118 121 
3 110 113 120 
3 110 120 115 
3 115 120 103 
3 115 103 100 
3 114 108 122 
3 114 122 119 
3 112 109 116 
3 112 116 117 
3 35 47 48 
3 35 48 36 
3 46 38 37 
3 46 37 45 
3 44 42 41 
3 44 41 43 
3 54 49 50 
3 54 50 53 
3 33 59 60 
3 33 60 34 
3 72 65 66 
3 72 66 71 
3 62 67 68 
3 62 68 61 
3 70 63 64 
3 70 64 69 
3 39 50 49 
3 39 49 40 
3 47 57 58 
3 47 58 48 
3 56 46 45 
3 56 45 55 
3 43 51 52 
3 43 52 44 
3 71 56 55 
3 71 55 72 
3 69 54 53 
3 69 53 70 
3 65 32 31 
3 65 31 66 
3 29 64 63 
3 29 63 30 
3 61 28 27 
3 61 27 62 
3 59 73 74 
3 59 74 60 
3 73 58 57 
3 73 57 74 
3 67 52 51 
3 67 51 68 
3 83 95 96 
3 83 96 84 
3 94 86 85 
3 94 85 93 
3 92 90 89 
3 92 89 91 
3 102 97 98 
3 102 98 101 
3 81 107 108 
3 81 108 82 
3 120 113 114 
3 120 114 119 
3 110 115 116 
3 110 116 109 
3 118 111 112 
3 118 112 117 
3 87 98 97 
3 87 97 88 
3 95 105 106 
3 95 106 96 
3 104 94 93 
3 104 93 103 
3 91 99 100 
3 91 100 92 
3 119 104 103 
3 119 103 120 
3 117 102 101 
3 117 101 118 
3 113 80 79 
3 113 79 114 
3 77 112 111 
3 77 111 78 
3 109 76 75 
3 109 75 110 
3 107 121 122 
3 107 122 108 
3 121 106 105 
3 121 105 122 
3 115 100 99 
3 115 99 116 
3 30 63 62 
3 30 62 27 
3 133 357 358 
3 133 358 132 
3 139 276 357 
3 139 357 134 
3 355 275 128 
3 355 128 277 
3 131 358 356 
3 131 356 138 
3 126 345 347 
3 346 287 348 
3 344 125 124 
3 350 126 347 
3 137 356 276 
3 137 276 140 
3 284 351 349 
3 287 289 288 
3 282 284 283 
3 137 138 356 
3 358 131 132 
3 139 140 276 
3 357 133 134 
3 125 135 124 
3 130 126 127 
3 284 288 283 
3 124 289 286 
3 130 285 282 
3 348 284 349 
3 285 350 351 
3 126 136 125 
3 344 286 346 
3 144 343 342 
3 144 342 158 
3 151 173 171 
3 151 171 165 
3 151 165 163 
3 151 163 148 
3 147 164 170 
3 147 170 150 
3 172 174 176 
3 172 176 178 
3 156 158 342 
3 156 342 341 
3 153 176 174 
3 153 174 152 
3 149 169 167 
3 149 167 177 
3 149 177 175 
3 149 175 154 
3 160 359 281 
3 160 281 145 
3 187 199 201 
3 187 201 192 
3 180 183 218 
3 180 218 213 
3 193 195 198 
3 193 198 190 
3 186 181 216 
3 186 216 212 
3 184 185 211 
3 184 211 217 
3 189 197 200 
3 189 200 188 
3 191 202 196 
3 191 196 194 
3 195 203 208 
3 195 208 198 
3 199 209 206 
3 199 206 201 
3 224 225 210 
3 224 210 207 
3 197 207 210 
3 197 210 200 
3 220 223 208 
3 220 208 203 
3 202 205 204 
3 202 204 196 
3 222 219 204 
3 222 204 205 
3 217 211 225 
3 217 225 224 
3 212 216 221 
3 212 221 226 
3 226 221 206 
3 226 206 209 
3 213 218 223 
3 213 223 220 
3 215 214 219 
3 215 219 222 
3 227 262 265 
3 227 265 232 
3 156 341 360 
3 156 360 162 
3 168 170 164 
3 168 164 166 
3 166 172 178 
3 166 178 168 
3 160 162 360 
3 160 360 359 
3 238 235 247 
3 238 247 246 
3 233 259 263 
3 233 263 230 
3 236 239 250 
3 236 250 248 
3 229 264 261 
3 229 261 228 
3 231 266 260 
3 231 260 234 
3 242 237 245 
3 242 245 244 
3 240 241 243 
3 240 243 249 
3 249 243 251 
3 249 251 254 
3 248 250 253 
3 248 253 258 
3 271 256 257 
3 271 257 274 
3 244 245 255 
3 244 255 252 
3 269 254 251 
3 269 251 268 
3 246 247 257 
3 246 257 256 
3 273 258 253 
3 273 253 270 
3 259 273 270 
3 259 270 263 
3 262 267 272 
3 262 272 265 
3 267 252 255 
3 267 255 272 
3 266 271 274 
3 266 274 260 
3 264 269 268 
3 264 268 261 
3 157 158 156 
3 157 156 155 
3 161 162 160 
3 161 160 159 
3 169 170 168 
3 169 168 167 
3 165 166 164 
3 165 164 163 
3 173 174 172 
3 173 172 171 
3 177 178 176 
3 177 176 175 
3 155 156 162 
3 155 162 161 
3 143 144 158 
3 143 158 157 
3 145 146 159 
3 145 159 160 
3 163 164 147 
3 163 147 148 
3 149 150 170 
3 149 170 169 
3 171 172 166 
3 171 166 165 
3 167 168 178 
3 167 178 177 
3 174 173 151 
3 174 151 152 
3 153 154 175 
3 153 175 176 
3 146 143 157 
3 146 157 155 
3 146 155 161 
3 146 161 159 
3 141 361 280 
3 141 280 279 
3 187 188 200 
3 187 200 199 
3 198 197 189 
3 198 189 190 
3 196 195 193 
3 196 193 194 
3 206 205 202 
3 206 202 201 
3 185 186 212 
3 185 212 211 
3 224 223 218 
3 224 218 217 
3 214 213 220 
3 214 220 219 
3 222 221 216 
3 222 216 215 
3 191 192 201 
3 191 201 202 
3 199 200 210 
3 199 210 209 
3 208 207 197 
3 208 197 198 
3 195 196 204 
3 195 204 203 
3 223 224 207 
3 223 207 208 
3 221 222 205 
3 221 205 206 
3 217 218 183 
3 217 183 184 
3 181 182 215 
3 181 215 216 
3 213 214 179 
3 213 179 180 
3 211 212 226 
3 211 226 225 
3 225 226 209 
3 225 209 210 
3 219 220 203 
3 219 203 204 
3 235 236 248 
3 235 248 247 
3 246 245 237 
3 246 237 238 
3 244 243 241 
3 244 241 242 
3 254 253 250 
3 254 250 249 
3 233 234 260 
3 233 260 259 
3 272 271 266 
3 272 266 265 
3 262 261 268 
3 262 268 267 
3 270 269 264 
3 270 264 263 
3 239 240 249 
3 239 249 250 
3 247 248 258 
3 247 258 257 
3 256 255 245 
3 256 245 246 
3 243 244 252 
3 243 252 251 
3 271 272 255 
3 271 255 256 
3 269 270 253 
3 269 253 254 
3 265 266 231 
3 265 231 232 
3 229 230 263 
3 229 263 264 
3 261 262 227 
3 261 227 228 
3 259 260 274 
3 259 274 273 
3 273 274 257 
3 273 257 258 
3 267 268 251 
3 267 251 252 
3 182 179 214 
3 182 214 215 
3 11 129 130 
3 11 130 12 
3 279 280 142 
3 279 142 278 
3 293 364 363 
3 293 363 307 
3 300 322 320 
3 300 320 314 
3 300 314 312 
3 300 312 297 
3 296 313 319 
3 296 319 299 
3 321 323 325 
3 321 325 327 
3 305 307 363 
3 305 363 362 
3 302 325 323 
3 302 323 301 
3 298 318 316 
3 298 316 326 
3 298 326 324 
3 298 324 303 
3 309 365 331 
3 309 331 294 
3 305 362 366 
3 305 366 311 
3 317 319 313 
3 317 313 315 
3 315 321 327 
3 315 327 317 
3 309 311 366 
3 309 366 365 
3 306 307 305 
3 306 305 304 
3 310 311 309 
3 310 309 308 
3 318 319 317 
3 318 317 316 
3 314 315 313 
3 314 313 312 
3 322 323 321 
3 322 321 320 
3 326 327 325 
3 326 325 324 
3 304 305 311 
3 304 311 310 
3 292 293 307 
3 292 307 306 
3 294 295 308 
3 294 308 309 
3 312 313 296 
3 312 296 297 
3 298 299 319 
3 298 319 318 
3 320 321 315 
3 320 315 314 
3 316 317 327 
3 316 327 326 
3 323 322 300 
3 323 300 301 
3 302 303 324 
3 302 324 325 
3 295 292 306 
3 295 306 304 
3 295 304 310 
3 295 310 308 
3 290 367 330 
3 290 330 329 
3 329 330 291 
3 329 291 328 
3 33 82 79 
3 33 79 32 
3 32 79 80 
3 32 80 31 
3 31 80 75 
3 31 75 28 
3 28 75 76 
3 28 76 27 
3 27 76 77 
3 27 77 30 
3 30 77 78 
3 30 78 29 
3 29 78 81 
3 29 81 34 
3 34 81 82 
3 34 82 33 
3 186 233 230 
3 186 230 181 
3 181 230 229 
3 181 229 182 
3 182 229 228 
3 182 228 179 
3 179 228 227 
3 179 227 180 
3 180 227 232 
3 180 232 183 
3 183 232 231 
3 183 231 184 
3 184 231 234 
3 184 234 185 
3 185 234 233 
3 185 233 186 
3 334 23 16 
3 15 18 11 
3 338 337 13 
3 336 123 21 
3 12 19 22 
3 16 23 26 
3 25 24 21 
3 12 13 14 
3 17 18 15 
3 21 22 19 
3 24 25 26 
3 21 123 338 
3 14 13 337 
3 332 16 15 
3 24 23 334 
3 333 15 14 
3 126 125 345 
3 346 286 287 
3 344 345 125 
3 350 127 126 
3 284 285 351 
3 287 286 289 
3 282 285 284 
3 125 136 135 
3 130 129 126 
3 284 287 288 
3 124 135 289 
3 130 127 285 
3 348 287 284 
3 285 127 350 
3 126 129 136 
3 344 124 286 
